<?xml version="1.0" encoding="UTF-8"?>
<svg id="Layer_2" data-name="Layer 2" xmlns="http://www.w3.org/2000/svg" viewBox="0 0 255.64 54.68">
  <defs>
    <style>
      .cls-1 {
        fill: #f9bb60;
      }

      .cls-1, .cls-2 {
        stroke-width: 0px;
      }

      .cls-2 {
        fill: #e06162;
      }
    </style>
  </defs>
  <g id="Layer_1-2" data-name="Layer 1">
    <g>
      <g>
        <path class="cls-1" d="M45.97,14.07L30.23,1.85c-3.11-2.42-7.46-2.47-10.62-.12L3.56,13.62c-4.68,3.47-4.75,10.46-.14,14.02l16.16,12.48c3.17,2.45,7.6,2.44,10.76-.02l14.16-11v12.13c0,.39.32.71.71.71h3.15c.39,0,.71-.32.71-.71v-18.01c0-3.32-.2-6.88-3.11-9.14Z"/>
        <path class="cls-2" d="M39.91,47.86l-7.39,4.86c-5,2.61-10.96,2.61-15.96,0l-7.39-4.86c-1.14-.59-1.85-1.77-1.85-3.05v-3.55c0-2.39,2.54-3.93,4.66-2.82l4.58,3.39q7.98,4.58,15.96,0l4.58-3.39c2.12-1.11,4.66.43,4.66,2.82v3.55c0,1.28-.71,2.46-1.85,3.05Z"/>
      </g>
      <g>
        <path class="cls-1" d="M60.43,20.55h13.37c.72,0,1.31.59,1.31,1.31v3.06c0,.72-.59,1.31-1.31,1.31h-5.98c-.72,0-1.31.59-1.31,1.31v1.03c0,.72.59,1.31,1.31,1.31h4.46c.72,0,1.31.59,1.31,1.31v2.82c0,.72-.59,1.31-1.31,1.31h-4.46c-.72,0-1.31.59-1.31,1.31v4.43c0,.72-.59,1.31-1.31,1.31h-4.77c-.72,0-1.31-.59-1.31-1.31v-19.2c0-.72.59-1.31,1.31-1.31Z"/>
        <path class="cls-1" d="M88.28,20.18c6.89,0,11.84,4.1,11.84,11.15s-5.1,11.48-12.09,11.48-11.51-4.32-11.51-11.45c0-6.75,5.2-11.18,11.76-11.18ZM92.42,31.44c0-2.82-.96-5.49-4.1-5.49s-4.08,2.95-4.08,5.65,1.01,5.41,4.13,5.41,4.06-2.97,4.06-5.58Z"/>
        <path class="cls-1" d="M105.39,30.48l-4.59-7.96c-.51-.87.13-1.97,1.14-1.97h5.36c.51,0,.97.29,1.19.75l1.22,2.6c.47,1.01,1.91,1,2.38,0l1.21-2.59c.22-.46.68-.76,1.19-.76h4.51c.99,0,1.63,1.06,1.15,1.94l-4.18,7.74c-.22.4-.21.88.02,1.28l5.12,8.91c.5.87-.13,1.97-1.14,1.97h-5.29c-.49,0-.94-.28-1.17-.71l-2.01-3.93c-.49-.95-1.85-.95-2.34,0l-2,3.93c-.22.44-.68.72-1.17.72h-4.51c-1.01,0-1.64-1.1-1.13-1.98l5.05-8.61c.24-.41.24-.91,0-1.32Z"/>
        <path class="cls-1" d="M128.95,33.14l-5.71-10.66c-.47-.87.16-1.93,1.16-1.93h4.95c.53,0,1,.31,1.21.8l1.38,3.23c.45,1.06,1.95,1.06,2.41,0l1.41-3.25c.21-.48.68-.79,1.2-.79h4.07c.98,0,1.62,1.04,1.17,1.91l-5.48,10.62c-.1.19-.15.39-.15.6v7.37c0,.72-.59,1.31-1.31,1.31h-4.83c-.72,0-1.31-.59-1.31-1.31v-7.3c0-.22-.05-.43-.16-.62Z"/>
        <path class="cls-2" d="M151.98,20.55h4.77c.72,0,1.31.59,1.31,1.31v13.52c0,.72.59,1.31,1.31,1.31h5.4c.72,0,1.31.59,1.31,1.31v3.06c0,.72-.59,1.31-1.31,1.31h-12.79c-.72,0-1.31-.59-1.31-1.31v-19.2c0-.72.59-1.31,1.31-1.31Z"/>
        <path class="cls-2" d="M170.33,20.55h13.77c.72,0,1.31.59,1.31,1.31v3.03c0,.72-.59,1.31-1.31,1.31h-6.46c-.72,0-1.31.59-1.31,1.31h0c0,.72.59,1.31,1.31,1.31h4.68c.72,0,1.31.59,1.31,1.31v2.5c0,.72-.59,1.31-1.31,1.31h-4.68c-.72,0-1.31.59-1.31,1.31v.15c0,.72.59,1.31,1.31,1.31h6.95c.72,0,1.31.59,1.31,1.31v3.03c0,.72-.59,1.31-1.31,1.31h-14.27c-.72,0-1.31-.59-1.31-1.31v-19.2c0-.72.59-1.31,1.31-1.31Z"/>
        <path class="cls-2" d="M195.1,20.55h7.64c.57,0,1.08.37,1.25.92l5.95,19.2c.26.84-.37,1.7-1.25,1.7h-5.06c-.58,0-1.09-.38-1.25-.93l-.36-1.17c-.17-.55-.68-.93-1.25-.93h-4.72c-.6,0-1.12.4-1.27.98l-.28,1.07c-.15.58-.67.98-1.27.98h-4.08c-.88,0-1.51-.86-1.25-1.7l5.95-19.2c.17-.55.68-.92,1.25-.92ZM199.99,32.74l-.32-1.3c-.33-1.32-2.19-1.33-2.54-.02l-.35,1.3c-.22.83.41,1.65,1.27,1.65h.67c.85,0,1.48-.8,1.27-1.63Z"/>
        <path class="cls-2" d="M212.56,21.86c0-.72.59-1.31,1.31-1.31h8.18c5.01,0,9.27,1.51,9.27,7.29,0,2.22-.79,3.92-2.46,5.1-.56.39-.77,1.12-.44,1.72l3.14,5.77c.48.87-.16,1.94-1.15,1.94h-4.74c-.49,0-.93-.27-1.16-.7l-3.45-6.53h-1.12v5.92c0,.72-.59,1.31-1.31,1.31h-4.77c-.72,0-1.31-.59-1.31-1.31v-19.2ZM221.59,30.41c1.59,0,2.62-.6,2.62-2.24,0-1.74-1.16-2.1-2.59-2.1h-.36c-.72,0-1.31.59-1.31,1.31v1.71c0,.72.59,1.31,1.31,1.31h.33Z"/>
        <path class="cls-2" d="M236.25,20.55h6.15c.48,0,.93.26,1.15.69l3.09,5.73c.65,1.2,2.47.74,2.47-.62v-4.48c0-.72.59-1.31,1.31-1.31h3.91c.72,0,1.31.59,1.31,1.31v19.2c0,.72-.59,1.31-1.31,1.31h-4.97c-.47,0-.91-.25-1.14-.67l-4.3-7.6c-.66-1.17-2.45-.7-2.45.65v6.31c0,.72-.59,1.31-1.31,1.31h-3.91c-.72,0-1.31-.59-1.31-1.31v-19.2c0-.72.59-1.31,1.31-1.31Z"/>
      </g>
    </g>
  </g>
</svg>