<svg width="1920" height="1118" viewBox="0 0 1920 1118" fill="none" xmlns="http://www.w3.org/2000/svg">
<g clip-path="url(#clip0_501_768)">
<rect width="1920" height="1118" fill="#FFFEFD"/>
<rect opacity="0.5" x="1558" y="1556.65" width="1618.49" height="506" rx="253" transform="rotate(-60 1558 1556.65)" fill="url(#paint0_linear_501_768)"/>
<g opacity="0.14">
<path d="M1523.36 569.01C1519.83 572.707 1514.19 573.632 1506.42 571.783C1498.65 570.304 1491.95 566.791 1486.3 561.244C1480.65 555.697 1479.24 549.226 1482.06 541.831C1499.71 509.66 1520.54 473.606 1544.54 433.669C1568.2 393.733 1593.26 356.94 1619.74 323.29C1646.21 289.639 1672.51 265.788 1698.63 251.737C1721.23 242.492 1742.58 244.711 1762.7 258.393C1782.47 272.445 1793.94 288.9 1797.12 307.759C1797.83 319.962 1796.24 335.862 1792.36 355.461C1788.47 375.429 1784.06 393.918 1779.12 410.928C1790.41 396.876 1803.12 379.681 1817.24 359.343C1843.01 319.407 1873.55 281.319 1908.85 245.081C1918.38 237.315 1931.97 235.651 1949.62 240.089C1967.27 244.526 1983.33 252.661 1997.81 264.494C2012.28 276.327 2019.34 289.455 2018.99 303.876C2012.63 361.192 1993.75 420.542 1962.33 481.926C1930.91 543.31 1896.14 591.012 1858.02 625.032C1836.84 642.042 1817.6 647.958 1800.3 642.781C1782.65 637.604 1764.82 628.175 1746.82 614.493C1740.46 610.055 1733.76 605.433 1726.7 600.626C1717.87 610.98 1709.05 621.704 1700.22 632.797C1694.22 640.932 1687.87 649.067 1681.16 657.203C1673.04 665.338 1661.74 667.002 1647.27 662.195C1632.44 657.388 1619.91 649.252 1609.67 637.789C1599.44 626.696 1596.79 615.602 1601.73 604.509C1647.98 519.829 1677.28 454.932 1689.63 409.819C1701.63 364.705 1702.16 341.964 1691.22 341.594C1663.33 343.443 1607.38 419.248 1523.36 569.01ZM1774.88 526.854C1772.76 530.183 1771.71 535.359 1771.71 542.385C1771.71 549.411 1772.94 555.882 1775.41 561.799C1777.88 568.085 1781.59 571.783 1786.53 572.892C1791.47 574.371 1797.83 571.043 1805.59 562.908C1837.01 527.779 1863.31 487.473 1884.49 441.99C1905.67 396.876 1916.97 364.705 1918.38 345.476C1901.08 360.638 1877.43 387.632 1847.43 426.459C1817.42 465.286 1793.24 498.751 1774.88 526.854Z" fill="#FDC1C5"/>
<path d="M1228.96 562.354C1226.84 564.942 1223.66 565.497 1219.42 564.018C1215.19 562.908 1210.78 560.505 1206.19 556.807C1201.6 553.109 1198.07 549.226 1195.6 545.159C1192.77 541.461 1192.07 538.318 1193.48 535.729C1199.13 526.115 1205.48 514.837 1212.54 501.894C1229.13 471.572 1248.9 438.107 1271.85 401.498C1294.44 364.89 1319.33 331.61 1346.51 301.657C1373.69 272.075 1402.28 252.476 1432.29 242.862C1449.94 238.794 1470.59 240.458 1494.24 247.854C1517.89 255.25 1539.07 266.158 1557.78 280.58C1576.49 295.371 1587.08 311.272 1589.55 328.282C1592.38 368.588 1584.43 415.365 1565.73 468.614C1547.02 521.862 1522.84 569.749 1493.18 612.274C1463.18 654.799 1432.99 680.314 1402.64 688.819C1396.28 690.298 1390.28 689.928 1384.63 687.71C1378.98 685.491 1372.1 682.163 1363.98 677.726C1359.75 675.507 1354.8 672.918 1349.16 669.96C1347.74 672.179 1345.98 674.952 1343.86 678.28C1339.27 684.936 1334.68 691.407 1330.09 697.694C1325.5 704.35 1322.15 708.233 1320.03 709.342C1308.03 713.779 1294.97 711.561 1280.85 702.686C1266.37 693.811 1255.08 682.903 1246.96 669.96C1238.49 657.388 1237.08 647.773 1242.72 641.117C1270.26 614.123 1292.32 583.986 1308.91 550.705C1325.15 517.795 1331.33 492.465 1327.45 474.715C1332.03 469.538 1339.98 468.429 1351.27 471.387C1362.22 474.346 1372.81 480.632 1383.04 490.246C1392.93 500.23 1398.4 512.803 1399.46 527.964C1399.11 541.646 1395.58 558.101 1388.87 577.33C1381.81 596.558 1375.1 612.089 1368.75 623.922C1383.93 615.787 1400.34 594.894 1417.99 561.244C1435.29 527.594 1449.76 490.801 1461.41 450.864C1473.06 411.298 1478 378.017 1476.24 351.023C1474.12 324.399 1461.24 313.675 1437.58 318.852C1409.7 327.727 1381.63 349.729 1353.39 384.858C1325.15 419.988 1296.03 460.664 1266.02 506.886C1254.02 525.375 1241.66 543.865 1228.96 562.354Z" fill="#FDC1C5"/>
<path d="M926.075 562.354C923.957 564.942 920.78 565.497 916.544 564.018C912.308 562.908 907.896 560.505 903.306 556.807C898.717 553.109 895.187 549.226 892.716 545.159C889.892 541.461 889.186 538.318 890.598 535.729C896.246 526.115 902.6 514.837 909.661 501.894C926.252 471.572 946.02 438.107 968.966 401.499C991.558 364.89 1016.45 331.61 1043.63 301.657C1070.81 272.075 1099.4 252.476 1129.41 242.862C1147.06 238.794 1167.71 240.459 1191.36 247.854C1215.01 255.25 1236.19 266.158 1254.9 280.58C1273.61 295.371 1284.2 311.272 1286.67 328.282C1289.5 368.588 1281.55 415.365 1262.84 468.614C1244.14 521.862 1219.95 569.749 1190.3 612.274C1160.3 654.799 1130.11 680.314 1099.76 688.819C1093.4 690.298 1087.4 689.928 1081.75 687.71C1076.1 685.491 1069.22 682.163 1061.1 677.726C1056.86 675.507 1051.92 672.918 1046.27 669.96C1044.86 672.179 1043.1 674.952 1040.98 678.28C1036.39 684.936 1031.8 691.407 1027.21 697.694C1022.62 704.35 1019.27 708.233 1017.15 709.342C1005.15 713.779 992.088 711.561 977.968 702.686C963.494 693.811 952.198 682.903 944.079 669.96C935.607 657.388 934.195 647.773 939.843 641.117C967.377 614.123 989.44 583.986 1006.03 550.706C1022.27 517.795 1028.45 492.465 1024.56 474.715C1029.15 469.538 1037.1 468.429 1048.39 471.387C1059.34 474.346 1069.93 480.632 1080.16 490.246C1090.05 500.23 1095.52 512.803 1096.58 527.964C1096.23 541.646 1092.7 558.101 1085.99 577.33C1078.93 596.558 1072.22 612.089 1065.87 623.922C1081.05 615.787 1097.46 594.894 1115.11 561.244C1132.41 527.594 1146.88 490.801 1158.53 450.864C1170.18 411.298 1175.12 378.017 1173.36 351.023C1171.24 324.399 1158.35 313.675 1134.7 318.852C1106.82 327.727 1078.75 349.729 1050.51 384.858C1022.27 419.988 993.147 460.664 963.141 506.886C951.139 525.375 938.784 543.865 926.075 562.354Z" fill="#FDC1C5"/>
<path d="M380.679 722.654C339.377 700.837 307.076 676.431 283.778 649.437C260.126 622.813 252.537 582.322 261.009 527.964C266.304 502.079 277.424 463.807 294.368 413.147C309.9 365.815 324.55 316.819 338.318 266.158C352.085 215.868 358.968 173.158 358.968 138.029C358.616 102.53 345.731 83.4862 320.314 80.8977C329.139 64.6273 345.378 59.4503 369.029 65.3668C392.328 70.9136 413.332 86.2595 432.041 111.405C450.751 136.55 457.105 170.015 451.104 211.8C438.748 268.007 419.862 331.055 394.446 400.944C379.266 443.839 367.617 479.707 359.498 508.55C348.202 547.378 346.26 579.549 353.673 605.063C361.087 630.948 381.914 650.547 416.156 663.859C416.862 595.449 437.689 514.837 478.638 422.021C519.234 329.206 565.302 265.234 616.841 230.105C630.961 222.709 649.141 221.785 671.38 227.331C693.267 232.878 713.565 242.677 732.274 256.729C750.631 270.781 761.75 286.681 765.633 304.431C768.811 334.013 765.28 370.067 755.043 412.592C766.692 398.17 779.754 380.421 794.227 359.343C822.115 316.818 854.238 276.697 890.598 238.979C900.482 231.214 914.426 229.55 932.43 233.987C950.433 238.425 966.671 246.745 981.145 258.948C995.971 271.15 1003.21 284.463 1002.85 298.884C996.501 357.31 977.262 417.769 945.138 480.262C913.367 542.755 877.89 591.382 838.706 626.141C817.173 643.521 797.581 649.437 779.93 643.891C761.927 638.714 743.923 629.099 725.92 615.048C719.213 610.61 712.329 605.988 705.269 601.181C702.092 605.988 698.385 611.904 694.149 618.93C689.913 625.586 685.677 632.058 681.441 638.344C677.205 644.63 673.498 649.622 670.321 653.32C661.496 661.455 649.847 662.749 635.374 657.203C620.547 652.026 608.192 643.706 598.308 632.242C588.071 620.779 585.599 609.501 590.895 598.407C633.608 522.972 659.378 458.26 668.203 404.272C676.675 350.654 675.793 318.852 665.556 308.868C653.553 301.103 634.844 313.675 609.427 346.586C583.658 379.866 559.3 422.021 536.355 473.051C513.409 524.081 499.819 572.892 495.583 619.485C490.993 666.077 504.055 698.988 534.766 718.217C543.592 724.133 546.239 733.563 542.709 746.505C539.179 759.447 532.295 772.205 522.058 784.777C511.468 797.72 500.525 806.779 489.228 811.956C477.579 817.503 468.224 815.469 461.164 805.855C455.869 797.72 451.457 790.694 447.927 784.777C441.925 773.684 434.865 763.7 426.746 754.825C418.274 745.95 402.918 735.227 380.679 722.654ZM758.22 525.191C756.455 528.519 755.396 533.696 755.043 540.721C754.337 548.117 755.043 554.958 757.161 561.244C758.926 567.9 762.103 571.783 766.692 572.892C771.282 574.372 777.636 571.044 785.755 562.908C817.526 527.039 844.178 485.994 865.711 439.771C887.245 393.548 898.717 360.638 900.129 341.039C883.185 356.57 860.063 383.934 830.763 423.131C801.111 462.697 776.93 496.717 758.22 525.191Z" fill="#FDC1C5"/>
<path d="M-82.6441 403.163C-89.7044 403.902 -94.2935 400.389 -96.4114 392.624C-98.5296 385.228 -98.5296 377.463 -96.4114 369.328C-94.6465 361.562 -91.2928 357.125 -86.3506 356.015C-71.1714 353.797 -56.345 353.242 -41.8719 354.351C-27.3985 355.461 -11.1601 359.159 6.84334 365.445C8.25533 362.487 9.84383 359.159 11.609 355.461C19.3751 336.602 31.0244 314.23 46.5567 288.345C61.736 262.461 80.7984 242.307 103.744 227.886C119.629 220.121 139.398 219.196 163.049 225.113C186.348 231.029 208.058 241.383 228.179 256.174C248.301 271.335 261.362 288.53 267.363 307.759C273.364 334.383 272.835 363.226 265.774 394.288C258.714 425.719 248.477 454.932 235.063 481.926C222.002 508.92 208.764 529.073 195.349 542.385C190.76 547.193 185.642 551.63 179.994 555.698C177.523 557.547 175.051 559.395 172.58 561.244C175.405 576.775 176.993 592.306 177.346 607.837C177.346 623.368 173.993 638.159 167.285 652.211C157.401 668.111 138.162 676.062 109.569 676.062C80.6219 676.431 52.3813 667.557 24.8468 649.437C-2.68788 631.318 -19.4557 603.03 -25.4569 564.572C-28.2809 538.318 -27.9279 512.618 -24.3979 487.473C-21.2209 462.698 -16.4552 437.367 -10.1011 411.483C-17.1612 407.415 -27.3985 404.272 -40.8128 402.053C-54.2271 400.204 -68.1709 400.574 -82.6441 403.163ZM179.994 279.471C153.871 295.741 134.103 314.97 120.688 337.157C106.921 359.343 95.4482 383.194 86.2701 408.709C110.628 425.35 129.16 447.352 141.869 474.715C146.811 468.799 153.342 453.453 161.461 428.678C169.227 404.272 175.581 377.833 180.523 349.359C185.112 320.886 184.936 297.59 179.994 279.471ZM70.3847 470.833C65.4426 484.884 62.795 501.525 62.442 520.753C61.7361 540.352 62.6185 558.471 65.0896 575.111C67.5606 592.121 70.9143 603.954 75.1504 610.61C95.9778 578.439 94.3893 531.847 70.3847 470.833Z" fill="#FDC1C5"/>
</g>
<path d="M365.293 912.679C365.683 912.288 366.317 912.288 366.707 912.679L373.071 919.043C373.462 919.433 373.462 920.066 373.071 920.457C372.681 920.847 372.047 920.847 371.657 920.457L366 914.8L360.343 920.457C359.953 920.847 359.319 920.847 358.929 920.457C358.538 920.066 358.538 919.433 358.929 919.043L365.293 912.679ZM813 1047.39L812.353 1046.62L813 1047.39ZM939.189 1032.88L939.032 1031.89L939.189 1032.88ZM641.5 861.386V862.386V861.386ZM367 913.386C367 915.58 367.017 917.729 367.051 919.833L365.051 919.865C365.017 917.75 365 915.59 365 913.386H367ZM367.45 931.936C367.674 936.288 367.98 940.421 368.365 944.343L366.375 944.539C365.987 940.583 365.678 936.419 365.453 932.039L367.45 931.936ZM369.895 956.386C370.57 960.623 371.357 964.555 372.25 968.198L370.308 968.674C369.4 964.973 368.602 960.986 367.92 956.7L369.895 956.386ZM375.802 979.781C377.391 983.962 379.173 987.598 381.129 990.732L379.433 991.791C377.398 988.531 375.561 984.775 373.933 980.491L375.802 979.781ZM388.863 999.884C392.012 1002.55 395.449 1004.42 399.146 1005.58L398.547 1007.49C394.595 1006.25 390.921 1004.25 387.569 1001.41L388.863 999.884ZM410.9 1007.03C414.689 1006.88 418.68 1006.23 422.851 1005.12L423.365 1007.05C419.08 1008.19 414.94 1008.88 410.976 1009.03L410.9 1007.03ZM434.348 1001.13C437.923 999.625 441.592 997.867 445.343 995.881L446.279 997.649C442.483 999.658 438.76 1001.44 435.122 1002.97L434.348 1001.13ZM455.97 989.806C459.362 987.733 462.805 985.512 466.29 983.164L467.408 984.823C463.901 987.185 460.433 989.423 457.012 991.513L455.97 989.806ZM476.366 976.12C479.625 973.765 482.912 971.321 486.22 968.805L487.431 970.396C484.111 972.921 480.811 975.375 477.537 977.741L476.366 976.12ZM495.909 961.285C499.094 958.769 502.292 956.202 505.497 953.598L506.758 955.151C503.547 957.759 500.342 960.332 497.149 962.855L495.909 961.285ZM515.008 945.792C518.161 943.181 521.315 940.549 524.464 937.91L525.749 939.443C522.597 942.084 519.44 944.718 516.284 947.332L515.008 945.792ZM533.88 929.997C537.03 927.344 540.17 924.698 543.294 922.073L544.581 923.604C541.458 926.229 538.319 928.874 535.168 931.527L533.88 929.997ZM552.748 914.162C555.942 911.503 559.114 908.88 562.257 906.311L563.523 907.859C560.386 910.424 557.219 913.042 554.027 915.699L552.748 914.162ZM571.853 898.567C575.137 895.957 578.381 893.425 581.577 890.989L582.79 892.579C579.606 895.006 576.372 897.53 573.097 900.133L571.853 898.567ZM591.492 883.648C594.962 881.163 598.363 878.824 601.683 876.658L602.776 878.333C599.483 880.481 596.107 882.803 592.657 885.274L591.492 883.648ZM612.267 870.216C616.11 868.064 619.821 866.214 623.379 864.718L624.154 866.562C620.679 868.022 617.036 869.837 613.244 871.961L612.267 870.216ZM635.254 860.999C637.413 860.597 639.497 860.386 641.5 860.386V862.386C639.637 862.386 637.676 862.582 635.621 862.965L635.254 860.999ZM641.5 860.386C643.534 860.386 645.52 860.476 647.458 860.654L647.276 862.646C645.399 862.474 643.475 862.386 641.5 862.386V860.386ZM658.951 862.859C662.766 864.002 666.367 865.522 669.772 867.378L668.815 869.134C665.528 867.342 662.055 865.877 658.377 864.774L658.951 862.859ZM679.47 873.963C682.439 876.407 685.233 879.134 687.871 882.104L686.375 883.432C683.8 880.532 681.08 877.879 678.199 875.507L679.47 873.963ZM695.065 891.314C697.235 894.45 699.288 897.762 701.238 901.221L699.495 902.203C697.572 898.792 695.552 895.532 693.421 892.453L695.065 891.314ZM706.582 911.564C708.219 915.009 709.779 918.556 711.273 922.183L709.424 922.944C707.941 919.346 706.395 915.832 704.775 912.423L706.582 911.564ZM715.467 933C716.786 936.605 718.055 940.262 719.282 943.951L717.384 944.582C716.162 940.909 714.9 937.271 713.589 933.688L715.467 933ZM722.817 954.987C723.959 958.678 725.07 962.381 726.159 966.076L724.241 966.642C723.153 962.953 722.045 959.258 720.906 955.578L722.817 954.987ZM729.391 977.192C730.469 980.935 731.533 984.646 732.594 988.31L730.673 988.867C729.611 985.201 728.546 981.485 727.469 977.746L729.391 977.192ZM735.858 999.406C736.991 1003.18 738.131 1006.86 739.289 1010.44L737.386 1011.06C736.222 1007.46 735.079 1003.76 733.943 999.982L735.858 999.406ZM743.021 1021.37C744.383 1025.11 745.783 1028.69 747.237 1032.06L745.401 1032.85C743.928 1029.44 742.514 1025.82 741.141 1022.05L743.021 1021.37ZM752.235 1042.34C754.221 1045.93 756.313 1049.12 758.54 1051.86L756.988 1053.12C754.67 1050.27 752.514 1046.97 750.485 1043.31L752.235 1042.34ZM766.77 1059.41C769.932 1061.4 773.353 1062.61 777.103 1062.92L776.938 1064.91C772.846 1064.58 769.119 1063.25 765.703 1061.1L766.77 1059.41ZM788.161 1061.47C791.321 1060.45 794.695 1058.92 798.308 1056.8L799.317 1058.53C795.603 1060.7 792.095 1062.3 788.772 1063.37L788.161 1061.47ZM807.717 1050.39C809.227 1049.22 810.772 1047.97 812.353 1046.62L813.647 1048.15C812.044 1049.51 810.475 1050.78 808.939 1051.97L807.717 1050.39ZM812.353 1046.62C813.891 1045.32 815.41 1044.01 816.909 1042.7L818.223 1044.21C816.718 1045.52 815.193 1046.84 813.647 1048.15L812.353 1046.62ZM825.664 1034.87C828.594 1032.18 831.441 1029.49 834.205 1026.81L835.598 1028.24C832.82 1030.94 829.96 1033.64 827.017 1036.35L825.664 1034.87ZM842.495 1018.53C845.278 1015.66 847.969 1012.8 850.57 1009.95L852.048 1011.3C849.433 1014.16 846.727 1017.04 843.93 1019.92L842.495 1018.53ZM858.272 1001.22C860.881 998.159 863.386 995.11 865.792 992.073L867.36 993.315C864.939 996.371 862.418 999.439 859.794 1002.52L858.272 1001.22ZM872.85 982.807C875.213 979.578 877.463 976.363 879.604 973.166L881.266 974.279C879.109 977.499 876.843 980.736 874.464 983.988L872.85 982.807ZM885.929 963.255C887.985 959.866 889.919 956.499 891.735 953.157L893.492 954.112C891.661 957.483 889.711 960.877 887.639 964.293L885.929 963.255ZM897.072 942.702C898.8 939.086 900.389 935.502 901.844 931.954L903.695 932.714C902.225 936.297 900.62 939.915 898.877 943.564L897.072 942.702ZM905.96 921C907.245 917.231 908.378 913.508 909.365 909.836L911.297 910.356C910.297 914.071 909.151 917.835 907.853 921.645L905.96 921ZM911.997 898.476C912.757 894.556 913.349 890.702 913.781 886.92L915.768 887.147C915.33 890.981 914.73 894.887 913.96 898.857L911.997 898.476ZM914.625 875.249C914.742 871.259 914.676 867.364 914.439 863.57L916.435 863.445C916.676 867.301 916.743 871.258 916.624 875.307L914.625 875.249ZM913.142 851.98C912.499 848.05 911.664 844.252 910.65 840.595L912.577 840.061C913.611 843.789 914.462 847.658 915.115 851.658L913.142 851.98ZM906.881 829.545C905.374 825.864 903.67 822.366 901.789 819.063L903.527 818.074C905.451 821.453 907.193 825.028 908.732 828.787L906.881 829.545ZM895.354 809.384C892.942 806.264 890.348 803.388 887.596 800.773L888.973 799.323C891.802 802.011 894.464 804.962 896.936 808.161L895.354 809.384ZM878.554 793.496C875.314 791.312 871.925 789.439 868.417 787.896L869.222 786.065C872.842 787.657 876.335 789.589 879.672 791.838L878.554 793.496ZM857.44 784.247C853.705 783.386 849.876 782.876 845.984 782.737L846.055 780.739C850.075 780.882 854.03 781.408 857.889 782.298L857.44 784.247ZM834.428 783.409C830.694 783.975 826.928 784.882 823.154 786.149L822.518 784.252C826.4 782.95 830.278 782.015 834.128 781.432L834.428 783.409ZM812.51 790.684C809.192 792.406 805.884 794.419 802.602 796.735L801.449 795.101C804.802 792.734 808.187 790.674 811.589 788.909L812.51 790.684ZM793.515 804.006C792.07 805.305 790.633 806.667 789.207 808.093L787.793 806.679C789.244 805.228 790.706 803.841 792.178 802.519L793.515 804.006ZM789.207 808.093C787.928 809.372 786.669 810.833 785.437 812.464L783.841 811.259C785.121 809.564 786.44 808.031 787.793 806.679L789.207 808.093ZM779.352 822.354C777.683 825.621 776.11 829.213 774.656 833.084L772.784 832.381C774.261 828.448 775.864 824.786 777.57 821.444L779.352 822.354ZM771.01 844.27C769.979 847.938 769.048 851.772 768.232 855.744L766.273 855.341C767.098 851.325 768.04 847.444 769.085 843.729L771.01 844.27ZM766.237 867.324C765.701 871.143 765.27 875.053 764.954 879.032L762.96 878.873C763.28 874.855 763.715 870.905 764.256 867.047L766.237 867.324ZM764.364 890.804C764.284 894.697 764.315 898.632 764.468 902.592L762.469 902.669C762.315 898.669 762.283 894.694 762.365 890.763L764.364 890.804ZM765.278 914.349C765.667 918.242 766.179 922.14 766.822 926.026L764.849 926.353C764.199 922.423 763.681 918.482 763.288 914.548L765.278 914.349ZM769.135 937.568C770.038 941.383 771.078 945.169 772.261 948.909L770.354 949.513C769.155 945.723 768.103 941.89 767.189 938.029L769.135 937.568ZM776.247 959.971C777.724 963.6 779.352 967.166 781.139 970.654L779.359 971.566C777.545 968.025 775.893 964.405 774.395 960.725L776.247 959.971ZM786.97 980.843C789.065 984.133 791.324 987.328 793.755 990.413L792.184 991.651C789.711 988.512 787.413 985.262 785.283 981.918L786.97 980.843ZM801.48 999.232C804.181 1002 807.051 1004.66 810.097 1007.18L808.822 1008.72C805.72 1006.15 802.798 1003.45 800.048 1000.63L801.48 999.232ZM819.516 1014.15C822.719 1016.27 826.085 1018.25 829.621 1020.09L828.698 1021.86C825.101 1019.99 821.675 1017.97 818.414 1015.82L819.516 1014.15ZM840.277 1024.97C843.82 1026.39 847.511 1027.68 851.354 1028.83L850.782 1030.75C846.882 1029.58 843.133 1028.27 839.533 1026.83L840.277 1024.97ZM862.745 1031.71C866.49 1032.5 870.364 1033.16 874.369 1033.69L874.106 1035.68C870.052 1035.14 866.129 1034.47 862.333 1033.67L862.745 1031.71ZM886.139 1034.85C889.921 1035.1 893.809 1035.23 897.807 1035.26L897.795 1037.26C893.76 1037.23 889.832 1037.09 886.01 1036.85L886.139 1034.85ZM909.562 1035C913.427 1034.82 917.385 1034.54 921.44 1034.15L921.63 1036.14C917.545 1036.53 913.555 1036.82 909.657 1037L909.562 1035ZM933.041 1032.79C935.017 1032.51 937.014 1032.22 939.032 1031.89L939.346 1033.87C937.315 1034.19 935.305 1034.49 933.315 1034.77L933.041 1032.79ZM939.032 1031.89C941.104 1031.56 943.098 1031.18 945.017 1030.75L945.456 1032.7C943.494 1033.14 941.458 1033.53 939.346 1033.87L939.032 1031.89ZM956.028 1027.43C959.819 1025.94 963.222 1024.2 966.268 1022.22L967.358 1023.9C964.19 1025.96 960.665 1027.76 956.757 1029.29L956.028 1027.43ZM975.06 1014.86C977.68 1012.04 979.894 1008.93 981.744 1005.56L983.498 1006.52C981.573 1010.03 979.264 1013.28 976.526 1016.22L975.06 1014.86ZM986.16 994.93C987.246 991.358 988.057 987.576 988.625 983.604L990.605 983.886C990.025 987.947 989.193 991.829 988.074 995.512L986.16 994.93ZM989.602 971.982C989.724 968.201 989.681 964.289 989.495 960.259L991.493 960.167C991.681 964.241 991.725 968.206 991.601 972.047L989.602 971.982ZM988.601 948.525C988.212 944.748 987.725 940.889 987.158 936.958L989.137 936.672C989.708 940.626 990.198 944.512 990.591 948.319L988.601 948.525ZM985.303 925.383C984.638 921.574 983.916 917.711 983.149 913.801L985.112 913.416C985.881 917.337 986.606 921.215 987.273 925.039L985.303 925.383ZM980.794 902.246C979.996 898.458 979.17 894.635 978.327 890.784L980.281 890.356C981.125 894.211 981.952 898.039 982.751 901.834L980.794 902.246ZM975.787 879.28C974.94 875.46 974.086 871.619 973.239 867.764L975.192 867.335C976.039 871.187 976.892 875.026 977.74 878.847L975.787 879.28ZM970.742 856.267C969.922 852.424 969.117 848.574 968.338 844.722L970.299 844.326C971.076 848.169 971.879 852.012 972.698 855.849L970.742 856.267ZM966.089 833.166C965.365 829.281 964.679 825.402 964.04 821.534L966.013 821.208C966.65 825.061 967.334 828.926 968.055 832.799L966.089 833.166ZM962.263 809.86C961.721 805.944 961.24 802.047 960.832 798.176L962.821 797.967C963.227 801.814 963.705 805.689 964.244 809.586L962.263 809.86ZM959.82 786.387C959.561 782.405 959.394 778.459 959.333 774.556L961.332 774.524C961.393 778.392 961.559 782.305 961.816 786.257L959.82 786.387ZM959.487 762.748C959.661 758.77 959.965 754.849 960.413 750.991L962.4 751.222C961.957 755.028 961.657 758.902 961.485 762.835L959.487 762.748ZM962.285 739.246C963.09 735.33 964.074 731.496 965.254 727.755L967.161 728.356C966.003 732.028 965.036 735.795 964.244 739.649L962.285 739.246ZM969.467 716.673C971.093 713.065 972.941 709.566 975.031 706.187L976.732 707.238C974.69 710.541 972.882 713.963 971.29 717.495L969.467 716.673ZM981.98 696.494C984.449 693.505 987.154 690.638 990.11 687.902L991.469 689.37C988.578 692.046 985.934 694.848 983.522 697.768L981.98 696.494ZM999.263 680.444C1002.39 678.198 1005.74 676.068 1009.31 674.061L1010.29 675.805C1006.78 677.777 1003.5 679.867 1000.43 682.069L999.263 680.444ZM1019.96 668.758C1023.4 667.24 1027.03 665.817 1030.83 664.494L1031.49 666.383C1027.73 667.689 1024.16 669.092 1020.77 670.588L1019.96 668.758ZM1042.38 660.943C1045.97 659.971 1049.71 659.077 1053.59 658.263L1054 660.22C1050.16 661.027 1046.46 661.912 1042.9 662.874L1042.38 660.943ZM1065.46 656.1C1069.15 655.523 1072.95 655.011 1076.87 654.565L1077.1 656.552C1073.2 656.995 1069.43 657.503 1065.77 658.076L1065.46 656.1ZM1089.01 653.428C1092.7 653.152 1096.49 652.93 1100.38 652.763L1100.47 654.762C1096.6 654.928 1092.83 655.149 1089.16 655.423L1089.01 653.428ZM1112.31 652.429C1114.35 652.401 1116.41 652.386 1118.5 652.386V654.386C1116.42 654.386 1114.36 654.4 1112.34 654.428L1112.31 652.429Z" fill="#FD5956"/>
</g>
<defs>
<linearGradient id="paint0_linear_501_768" x1="1566.34" y1="2077.8" x2="2657.68" y2="2366.13" gradientUnits="userSpaceOnUse">
<stop stop-color="#FDC1C5" stop-opacity="0"/>
<stop offset="0.734375" stop-color="#FDC1C5"/>
</linearGradient>
<clipPath id="clip0_501_768">
<rect width="1920" height="1118" fill="white"/>
</clipPath>
</defs>
</svg>
