<svg width="250" height="28" viewBox="0 0 250 28" fill="none" xmlns="http://www.w3.org/2000/svg">
<path d="M13.5 0C6.04456 0 0 6.08105 0 13.5815C0 20.3593 4.93609 25.9772 11.3911 27V17.5083H7.96175V13.5815H11.3911V10.5892C11.3911 7.18262 13.4068 5.30411 16.4892 5.30411C17.9662 5.30411 19.5135 5.56897 19.5135 5.56897V8.909H17.8069C16.1328 8.909 15.6089 9.95759 15.6089 11.032V13.5788H19.3501L18.752 17.5056H15.6089V26.9973C22.0639 25.9799 27 20.3607 27 13.5815C27 6.08105 20.9554 0 13.5 0V0Z" fill="black"/>
<path d="M85.4964 8.99808C83.0175 8.99808 80.9945 11.0211 80.9945 13.5C80.9945 15.9789 83.0175 18.0019 85.4964 18.0019C87.9752 18.0019 89.9982 15.9789 89.9982 13.5C89.9982 11.0211 87.9752 8.99808 85.4964 8.99808ZM98.9985 13.5C98.9985 11.6357 99.0154 9.78837 98.9107 7.92748C98.806 5.76602 98.3129 3.84773 96.7324 2.26716C95.1485 0.683215 93.2336 0.19351 91.0722 0.0888138C89.2079 -0.0158819 87.3606 0.00100455 85.4997 0.00100455C83.6355 0.00100455 81.7882 -0.0158819 79.9273 0.0888138C77.7659 0.19351 75.8477 0.686593 74.2671 2.26716C72.6832 3.85111 72.1935 5.76602 72.0888 7.92748C71.9841 9.79174 72.001 11.6391 72.001 13.5C72.001 15.3609 71.9841 17.2116 72.0888 19.0725C72.1935 21.234 72.6866 23.1523 74.2671 24.7328C75.851 26.3168 77.7659 26.8065 79.9273 26.9112C81.7916 27.0159 83.6389 26.999 85.4997 26.999C87.364 26.999 89.2113 27.0159 91.0722 26.9112C93.2336 26.8065 95.1518 26.3134 96.7324 24.7328C98.3163 23.1489 98.806 21.234 98.9107 19.0725C99.0188 17.2116 98.9985 15.3643 98.9985 13.5V13.5ZM85.4964 20.4268C81.6632 20.4268 78.5697 17.3332 78.5697 13.5C78.5697 9.66679 81.6632 6.57319 85.4964 6.57319C89.3295 6.57319 92.423 9.66679 92.423 13.5C92.423 17.3332 89.3295 20.4268 85.4964 20.4268ZM92.7067 7.90722C91.8118 7.90722 91.089 7.18448 91.089 6.2895C91.089 5.39452 91.8118 4.67179 92.7067 4.67179C93.6017 4.67179 94.3244 5.39452 94.3244 6.2895C94.3247 6.50202 94.283 6.7125 94.2018 6.90889C94.1206 7.10528 94.0015 7.28373 93.8512 7.434C93.7009 7.58427 93.5225 7.70342 93.3261 7.78462C93.1297 7.86583 92.9192 7.90749 92.7067 7.90722V7.90722Z" fill="black"/>
<path d="M177 3.20726C175.786 3.73448 174.466 4.11392 173.106 4.2617C174.518 3.4167 175.575 2.08173 176.08 0.507265C174.755 1.30124 173.303 1.858 171.789 2.15283C171.156 1.47154 170.391 0.928799 169.541 0.558419C168.69 0.188038 167.774 -0.00204411 166.847 1.6577e-05C163.1 1.6577e-05 160.086 3.05948 160.086 6.81392C160.086 7.34114 160.149 7.86836 160.252 8.3756C154.64 8.08004 149.636 5.38004 146.308 1.24617C145.702 2.28909 145.384 3.47657 145.388 4.68507C145.388 7.04957 146.582 9.13448 148.402 10.3607C147.329 10.3181 146.282 10.0212 145.344 9.49395V9.57782C145.344 12.8889 147.668 15.6328 150.766 16.2639C150.184 16.416 149.586 16.4939 148.985 16.4956C148.545 16.4956 148.128 16.4516 147.708 16.3917C148.565 19.0917 151.059 21.0528 154.03 21.1167C151.706 22.95 148.795 24.0284 145.634 24.0284C145.067 24.0284 144.543 24.0084 144 23.9445C146.998 25.8817 150.556 27 154.387 27C166.824 27 173.629 16.6234 173.629 7.61673C173.629 7.32117 173.629 7.0256 173.609 6.73004C174.926 5.75948 176.08 4.55726 177 3.20726Z" fill="black"/>
<path d="M228.268 28H222.463V9.306H228.268V28ZM225.362 6.756C223.506 6.756 222 5.218 222 3.362C222 2.47034 222.354 1.6152 222.985 0.984707C223.615 0.35421 224.47 0 225.362 0C226.254 0 227.109 0.35421 227.739 0.984707C228.37 1.6152 228.724 2.47034 228.724 3.362C228.724 5.218 227.218 6.756 225.362 6.756ZM249.994 28H244.202V18.9C244.202 16.731 244.158 13.95 241.184 13.95C238.166 13.95 237.703 16.306 237.703 18.744V28H231.904V9.306H237.471V11.856H237.552C238.327 10.387 240.22 8.837 243.044 8.837C248.919 8.837 249.999 12.706 249.999 17.731V28H249.994Z" fill="black"/>
</svg>
